<svg width="25" height="25" viewBox="0 0 25 25" fill="none" xmlns="http://www.w3.org/2000/svg">
<path d="M18.9783 0.228057C19.0509 0.155302 19.1371 0.0975784 19.232 0.0581934C19.3269 0.0188083 19.4287 -0.00146484 19.5314 -0.00146484C19.6342 -0.00146484 19.7359 0.0188083 19.8309 0.0581934C19.9258 0.0975784 20.012 0.155302 20.0846 0.228057L24.7721 4.91556C24.8448 4.98813 24.9025 5.07434 24.9419 5.16925C24.9813 5.26417 25.0016 5.36592 25.0016 5.46868C25.0016 5.57144 24.9813 5.6732 24.9419 5.76811C24.9025 5.86302 24.8448 5.94924 24.7721 6.02181L9.14706 21.6468C9.07208 21.7213 8.98278 21.7797 8.88456 21.8187L1.07206 24.9437C0.930085 25.0005 0.774554 25.0144 0.624747 24.9837C0.47494 24.953 0.337447 24.8789 0.229311 24.7708C0.121176 24.6627 0.0471552 24.5252 0.0164248 24.3754C-0.0143056 24.2256 -0.000393897 24.07 0.0564353 23.9281L3.18144 16.1156C3.22039 16.0173 3.27886 15.928 3.35331 15.8531L18.9783 0.228057ZM17.5111 3.90618L21.0939 7.48899L23.1142 5.46868L19.5314 1.88587L17.5111 3.90618ZM19.9892 8.59368L16.4064 5.01087L6.25019 15.1671V15.6249H7.03144C7.23864 15.6249 7.43735 15.7072 7.58386 15.8538C7.73037 16.0003 7.81269 16.199 7.81269 16.4062V17.1874H8.59394C8.80114 17.1874 8.99985 17.2697 9.14636 17.4163C9.29288 17.5628 9.37519 17.7615 9.37519 17.9687V18.7499H9.833L19.9892 8.59368ZM4.73769 16.6796L4.57206 16.8452L2.18456 22.8156L8.15487 20.4281L8.3205 20.2624C8.17147 20.2067 8.04299 20.1069 7.95224 19.9762C7.86149 19.8455 7.8128 19.6903 7.81269 19.5312V18.7499H7.03144C6.82423 18.7499 6.62552 18.6676 6.47901 18.5211C6.3325 18.3746 6.25019 18.1759 6.25019 17.9687V17.1874H5.46894C5.30984 17.1873 5.15457 17.1386 5.0239 17.0479C4.89322 16.9571 4.79337 16.8287 4.73769 16.6796Z" fill="black"/>
</svg>
